<?xml version="1.0" encoding="utf-8"?>
<svg viewBox="0 0 48 48" height="36" width="36" xmlns="http://www.w3.org/2000/svg" xmlns:bx="https://boxy-svg.com">
  <defs>
    <bx:grid x="0" y="0" width="2" height="2"/>
  </defs>
  <path style="fill: rgb(147, 147, 147);" d="M 8.52 37.5 C 11.04 35.74 13.54 34.39 16.02 33.451 C 18.5 32.51 21.16 32.04 24 32.04 C 26.84 32.04 29.51 32.51 32.011 33.451 C 34.51 34.39 37.02 35.74 39.54 37.5 C 41.3 35.34 42.55 33.16 43.291 30.96 C 44.03 28.76 44.4 26.44 44.4 24 C 44.4 18.2 42.451 13.351 38.551 9.451 C 34.651 5.551 29.8 3.6 24 3.6 C 18.2 3.6 13.351 5.551 9.451 9.451 C 5.551 13.351 3.6 18.2 3.6 24 C 3.6 26.44 3.98 28.76 4.74 30.96 C 5.5 33.16 6.76 35.34 8.52 37.5 Z M 24 25.8 C 21.68 25.8 19.73 25.01 18.151 23.431 C 16.57 21.85 15.78 19.9 15.78 17.58 C 15.78 15.26 16.57 13.31 18.151 11.731 C 19.73 10.15 21.68 9.36 24 9.36 C 26.32 9.36 28.27 10.15 29.851 11.731 C 31.43 13.31 32.22 15.26 32.22 17.58 C 32.22 19.9 31.43 21.85 29.851 23.431 C 28.27 25.01 26.32 25.8 24 25.8 Z M 24 48 C 20.72 48 17.62 47.371 14.7 46.111 C 11.78 44.851 9.23 43.13 7.051 40.951 C 4.87 38.77 3.151 36.22 1.891 33.3 C 0.631 30.38 0 27.28 0 24 C 0 20.68 0.631 17.57 1.891 14.671 C 3.151 11.77 4.87 9.23 7.051 7.051 C 9.23 4.87 11.78 3.151 14.7 1.891 C 17.62 0.631 20.72 0 24 0 C 27.32 0 30.43 0.631 33.331 1.891 C 36.23 3.151 38.77 4.87 40.951 7.051 C 43.13 9.23 44.851 11.77 46.111 14.671 C 47.371 17.57 48 20.68 48 24 C 48 27.28 47.371 30.38 46.111 33.3 C 44.851 36.22 43.13 38.77 40.951 40.951 C 38.77 43.13 36.23 44.851 33.331 46.111 C 30.43 47.371 27.32 48 24 48 Z M 24 44.4 C 26.2 44.4 28.351 44.08 30.451 43.44 C 32.551 42.8 34.62 41.68 36.66 40.08 C 34.62 38.64 32.54 37.54 30.42 36.78 C 28.3 36.02 26.16 35.64 24 35.64 C 21.84 35.64 19.7 36.02 17.58 36.78 C 15.46 37.54 13.38 38.64 11.34 40.08 C 13.38 41.68 15.451 42.8 17.551 43.44 C 19.651 44.08 21.8 44.4 24 44.4 Z M 24 22.2 C 25.36 22.2 26.47 21.77 27.331 20.911 C 28.19 20.05 28.62 18.94 28.62 17.58 C 28.62 16.22 28.19 15.11 27.331 14.251 C 26.47 13.39 25.36 12.96 24 12.96 C 22.64 12.96 21.53 13.39 20.671 14.251 C 19.81 15.11 19.38 16.22 19.38 17.58 C 19.38 18.94 19.81 20.05 20.671 20.911 C 21.53 21.77 22.64 22.2 24 22.2 Z M 24 17.58 Z M 24 40.02 Z"/>
</svg>