<?xml version="1.0" encoding="utf-8"?>
<svg height="24px" viewBox="0 -960 960 960" width="24px" fill="#5f6368" xmlns="http://www.w3.org/2000/svg" xmlns:bx="https://boxy-svg.com">
  <defs>
    <bx:grid x="0" y="-961.008" width="40" height="40"/>
  </defs>
  <g>
    <path d="M 715.031 -564.733 L 658.461 -621.3 L 732.146 -694.988 L 573.726 -693.726 L 573.726 -773.726 L 735.907 -770.126 L 658.456 -847.574 L 715.024 -904.144 L 884.733 -734.442 L 715.031 -564.733 Z" style="transform-box: fill-box; transform-origin: 50% 50%; fill: rgb(0, 0, 0);" transform="matrix(0.707121, -0.707092, 0.707092, 0.707121, 0.813156, 3.387517)"/>
    <path d="M 657.754 -621.3 L 730.929 -694.478 L 573.226 -693.222 L 573.226 -774.237 L 734.672 -770.654 L 657.749 -847.574 L 715.024 -904.851 L 885.44 -734.442 L 715.031 -564.026 Z M 884.026 -734.442 L 715.024 -903.437 L 659.163 -847.574 L 737.142 -769.598 L 574.226 -773.215 L 574.226 -694.23 L 733.363 -695.498 L 659.168 -621.3 L 715.031 -565.44 Z" style="fill: none;" transform="matrix(0.7071210741996765, -0.7070920467376709, 0.7070920467376709, 0.7071210741996765, 0.8131560683250427, 3.387516975402832)"/>
    <path d="M 120 -601.008 L 120 -761.008 C 120 -783.008 127.833 -801.841 143.5 -817.508 C 159.167 -833.175 178 -841.008 200 -841.008 L 360 -841.008 L 360 -761.008 L 200 -761.008 L 200 -601.008 L 120 -601.008 Z" style="fill: rgb(0, 0, 0);"/>
    <path d="M 200 -121.008 C 178 -121.008 159.167 -128.841 143.5 -144.508 C 127.833 -160.175 120 -179.008 120 -201.008 L 120 -361.008 L 200 -361.008 L 200 -201.008 L 360 -201.008 L 360 -121.008 L 200 -121.008 Z" style="fill: rgb(0, 0, 0);"/>
    <path d="M 680 -361.008 C 658 -361.008 639.167 -353.175 623.5 -337.508 C 607.833 -321.841 600 -303.008 600 -281.008 L 600 -121.008 L 680 -121.008 L 680 -281.008 L 840 -281.008 L 840 -361.008 L 680 -361.008 Z" style="transform-box: fill-box; transform-origin: 50% 50%; fill: rgb(0, 0, 0);" transform="matrix(-1, 0, 0, -1, -0.000096, 0.000011)"/>
  </g>
</svg>