<svg enable-background="new 0 0 55.702 55.702" version="1.1" viewBox="0 0 55.702 55.702" xml:space="preserve" xmlns="http://www.w3.org/2000/svg">
    <g fill="limegreen">
        <path d="M27.851,0C12.494,0,0,12.494,0,27.851s12.494,27.851,27.851,27.851s27.851-12.494,27.851-27.851 C55.701,12.494,43.208,0,27.851,0z M27.851,51.213c-12.882,0-23.362-10.48-23.362-23.363c0-12.882,10.48-23.362,23.362-23.362 s23.362,10.481,23.362,23.363S40.733,51.213,27.851,51.213z"/>
        <path d="m36.729 18.97-13 13.001-4.757-4.757c-0.876-0.877-2.297-0.877-3.173 0-0.877 0.876-0.877 2.297 0 3.173l6.344 6.344c0.438 0.438 1.013 0.658 1.587 0.658s1.148-0.219 1.586-0.658l14.587-14.587c0.876-0.877 0.876-2.297 0-3.174-0.877-0.876-2.297-0.876-3.174 0z"/>
    </g>
</svg>
