<?xml version="1.0" encoding="utf-8"?>
<svg viewBox="0 0 48 48" height="4px" width="4px" xmlns="http://www.w3.org/2000/svg" xmlns:bx="https://boxy-svg.com">
  <defs>
    <bx:grid x="0" y="0" width="2" height="2"/>
  </defs>
  <path style="fill: rgb(151, 154, 155);" d="M 7.2 48 C 5.2 48 3.5 47.3 2.1 45.9 C 0.7 44.5 0 42.8 0 40.8 L 0 7.2 C 0 5.2 0.7 3.5 2.1 2.1 C 3.5 0.7 5.2 0 7.2 0 L 40.8 0 C 42.8 0 44.5 0.7 45.9 2.1 C 47.3 3.5 48 5.2 48 7.2 L 48 40.8 C 48 42.8 47.3 44.5 45.9 45.9 C 44.5 47.3 42.8 48 40.8 48 L 7.2 48 Z M 7.2 44.4 L 40.8 44.4 C 41.84 44.4 42.7 44.05 43.38 43.351 C 44.06 42.65 44.4 41.8 44.4 40.8 L 44.4 7.2 C 44.4 6.16 44.06 5.3 43.38 4.62 C 42.7 3.94 41.84 3.6 40.8 3.6 L 7.2 3.6 C 6.2 3.6 5.35 3.94 4.651 4.62 C 3.95 5.3 3.6 6.16 3.6 7.2 L 3.6 40.8 C 3.6 41.8 3.95 42.65 4.651 43.351 C 5.35 44.05 6.2 44.4 7.2 44.4 Z M 11.04 37.8 L 19.2 29.64 L 23.58 33.96 L 28.8 27.36 L 37.14 37.8 L 11.04 37.8 Z M 14.4 18.6 C 13.24 18.6 12.25 18.19 11.431 17.371 C 10.61 16.55 10.2 15.56 10.2 14.4 C 10.2 13.24 10.61 12.25 11.431 11.431 C 12.25 10.61 13.24 10.2 14.4 10.2 C 15.56 10.2 16.55 10.61 17.371 11.431 C 18.19 12.25 18.6 13.24 18.6 14.4 C 18.6 15.56 18.19 16.55 17.371 17.371 C 16.55 18.19 15.56 18.6 14.4 18.6 Z"/>
</svg>