<?xml version="1.0" encoding="UTF-8" standalone="no"?>
<svg
   height="48"
   viewBox="0 -960 960 960"
   width="48"
   version="1.1"
   id="svg4"
   sodipodi:docname="lock.svg"
   inkscape:version="1.2.2 (b0a8486541, 2022-12-01)"
   xmlns:inkscape="http://www.inkscape.org/namespaces/inkscape"
   xmlns:sodipodi="http://sodipodi.sourceforge.net/DTD/sodipodi-0.dtd"
   xmlns="http://www.w3.org/2000/svg"
   xmlns:svg="http://www.w3.org/2000/svg">
  <defs
     id="defs8" />
  <sodipodi:namedview
     id="namedview6"
     pagecolor="#ffffff"
     bordercolor="#000000"
     borderopacity="0.25"
     inkscape:showpageshadow="2"
     inkscape:pageopacity="0.0"
     inkscape:pagecheckerboard="0"
     inkscape:deskcolor="#d1d1d1"
     showgrid="false"
     inkscape:zoom="10.945424"
     inkscape:cx="12.836415"
     inkscape:cy="23.480132"
     inkscape:window-width="1920"
     inkscape:window-height="997"
     inkscape:window-x="0"
     inkscape:window-y="0"
     inkscape:window-maximized="1"
     inkscape:current-layer="svg4">
    <inkscape:grid
       type="xygrid"
       id="grid287" />
  </sodipodi:namedview>
  <path
     d="m 220,-80 c -16.5,0 -30.625,-5.875 -42.375,-17.625 C 165.875,-109.375 160,-123.5 160,-140 v -434 c 0,-16.5 5.875,-30.625 17.625,-42.375 C 189.375,-628.125 203.5,-634 220,-634 h 80 v -106 c 0,-52.56667 11.95715,-78.74046 49.01749,-115.8008 40,-40 78.38651,-44.1992 130.98251,-44.1992 52.596,0 89.4603,0.36588 126.4603,37.41588 37,37.05 53.5397,70.01745 53.5397,122.58412 v 106 h 80 c 16.5,0 30.625,5.875 42.375,17.625 C 794.125,-604.625 800,-590.5 800,-574 v 434 c 0,16.5 -5.875,30.625 -17.625,42.375 C 770.625,-85.875 756.5,-80 740,-80 Z m -20,-40 H 760 V -600 H 200 Z m 280.168,-160 c 21.22133,0 39.332,-7.34367 54.332,-22.031 15,-14.68733 22.5,-32.34367 22.5,-52.969 0,-20 -7.556,-38.16667 -22.668,-54.5 -15.112,-16.33333 -33.27867,-24.5 -54.5,-24.5 -21.22133,0 -39.332,8.16667 -54.332,24.5 -15,16.33333 -22.5,34.66667 -22.5,55 0,20.33333 7.556,37.83333 22.668,52.5 15.112,14.66667 33.27867,22 54.5,22 z M 340,-634 h 280 v -106 c 0,-36.11133 -9.90011,-61.829 -35.15478,-87.10633 C 559.58989,-852.38433 516.196,-860 480.118,-860 c -36.07867,0 -78.66085,8.58472 -103.99418,33.86272 C 350.79049,-800.85995 340,-776.11133 340,-740 Z"
     id="path2"
     style="fill:#000000;fill-opacity:1"
     sodipodi:nodetypes="sssssscssssscssssssscccccsssssssssccssscsc" />
</svg>
