<svg xmlns="http://www.w3.org/2000/svg" width="256" height="256"><path d="M17.773 64.36l139.093-37.27 4.659 17.387 4.659 17.387 17.387-4.659 17.387-4.659 37.27 139.093-103.354 27.694-4.659-17.387-4.659-17.387 68.581-18.376-27.952-104.32-104.32 27.952 37.27 139.093-17.387 4.659-17.387 4.659L17.773 64.36z" fill="#7f7f7f" fill-opacity=".502"/><path d="M115.72 147.855c-96.325-73.576-48.163-36.788 0 0z" fill="#0f0f0f"/><path d="M111.32 131.434l-4.4-16.421 16.904-4.529 16.904-4.529 4.4 16.421 4.4 16.421-16.904 4.529-16.904 4.529z" fill="gray" fill-opacity=".502"/></svg>