<?xml version="1.0" encoding="utf-8"?>
<svg viewBox="0 0 132 132" height="128px" width="128px" xmlns="http://www.w3.org/2000/svg" xmlns:bx="https://boxy-svg.com">
  <defs>
    <bx:grid x="0" y="0" width="1" height="1"/>
  </defs>
  <path style="stroke: rgb(0, 0, 0); stroke-width: 0px;" d="M 2 123 C 2 119.446 1.888 20.112 1.888 13 C 1.888 5.89 9.212 2 12.766 2 C 16.322 2 119.446 2 123 2 C 126.556 2 130 5.444 130 9 C 130 12.554 130 119.446 130 123 C 130 126.556 126.556 130 123 130 C 119.446 130 55.556 130 52 130 C 48.444 130 45 126.556 45 123 C 45 119.446 45 115.556 45 112 C 45 108.444 48.444 105 52 105 C 55.556 105 105.112 105.112 105.112 105.112 C 105.112 105.112 105 33.556 105 30 C 105 27.998 104.196 27 102 27 C 98.444 27 33.172 27 30 27 C 28.216 27 27 28.45 27 30 C 27 33.556 27 119.446 27 123 C 27 126.556 23.352 130 20 130 C 16.444 130 12.554 130 9 130 C 5.444 130 2 126.556 2 123 Z M 9 119 C 9 120.916 10.17 123 12 123 C 12.882 123 12.444 123 16 123 C 17.75 123 20 121.034 20 119 C 20 115.444 20 30.556 20 27 C 20 23.446 23.446 20 27 20 C 30.556 20 101.444 20 105 20 C 112.11 20 112 24.088 112 27 C 112 30.556 112.222 105.112 112.222 108.666 C 112.222 110.31 110.31 112.222 108.666 112.222 C 105.112 112.222 58.554 112 55 112 C 53.196 112 52 114.194 52 116 C 52 119.556 52 118.104 52 119 C 52 120.894 53.122 123 55 123 C 58.554 123 115.444 123 119 123 C 120.774 123 123 120.678 123 119 C 123 115.444 123 14.924 123 13 C 123 11.078 120.564 9 119 9 C 117.434 9 16.556 9 13 9 C 11.522 9 9 11.45 9 13 C 9 16.556 9 115.444 9 119 Z"/>
  <path d="M 52 45 L 80 45 C 83.886 45 87 48.114 87 52 L 87 80 C 87 83.886 83.886 87 80 87 L 52 87 C 48.114 87 45 83.886 45 80 L 45 52 C 45 48.114 48.114 45 52 45 Z M 52 55 L 52 77 C 52 78.928 53.072 80 55 80 L 77 80 C 78.928 80 80 78.928 80 77 L 80 55 C 80 53.072 78.928 52 77 52 L 55 52 C 53.072 52 52 53.072 52 55 Z" style="stroke: rgba(255, 255, 255, 0);"/>
</svg>