<svg version="1.1" xmlns="http://www.w3.org/2000/svg" viewBox="0 0 4211.13644366197 2044.4761904761906" width="4211.13644366197" height="2044.4761904761906">
  <!-- svg-source:excalidraw -->
  
  <defs>
    <style class="style-fonts">
      @font-face {
        font-family: "Virgil";
        src: url("https://excalidraw.com/Virgil.woff2");
      }
      @font-face {
        font-family: "Cascadia";
        src: url("https://excalidraw.com/Cascadia.woff2");
      }
      @font-face {
        font-family: "Assistant";
        src: url("https://excalidraw.com/Assistant-Regular.woff2");
      }
    </style>
    
  </defs>
  <rect x="0" y="0" width="4211.13644366197" height="2044.4761904761906" fill="#ffffff"></rect><g stroke-opacity="0.8" fill-opacity="0.8" stroke-linecap="round" transform="translate(914.3253968253957 1267.1547619047592) rotate(0 701.25 6.785714285714278)"><path d="M3.39 0 C365.75 0, 728.11 0, 1399.11 0 C1401.37 0, 1402.5 1.13, 1402.5 3.39 C1402.5 5.19, 1402.5 6.99, 1402.5 10.18 C1402.5 12.44, 1401.37 13.57, 1399.11 13.57 C958.67 13.57, 518.23 13.57, 3.39 13.57 C1.13 13.57, 0 12.44, 0 10.18 C0 7.73, 0 5.28, 0 3.39 C0 1.13, 1.13 0, 3.39 0" stroke="none" stroke-width="0" fill="#ffc9c9"></path><path d="M3.39 0 C467.21 0, 931.03 0, 1399.11 0 M3.39 0 C293.02 0, 582.64 0, 1399.11 0 M1399.11 0 C1401.37 0, 1402.5 1.13, 1402.5 3.39 M1399.11 0 C1401.37 0, 1402.5 1.13, 1402.5 3.39 M1402.5 3.39 C1402.5 5.3, 1402.5 7.2, 1402.5 10.18 M1402.5 3.39 C1402.5 5.21, 1402.5 7.02, 1402.5 10.18 M1402.5 10.18 C1402.5 12.44, 1401.37 13.57, 1399.11 13.57 M1402.5 10.18 C1402.5 12.44, 1401.37 13.57, 1399.11 13.57 M1399.11 13.57 C1065.43 13.57, 731.75 13.57, 3.39 13.57 M1399.11 13.57 C1104.93 13.57, 810.75 13.57, 3.39 13.57 M3.39 13.57 C1.13 13.57, 0 12.44, 0 10.18 M3.39 13.57 C1.13 13.57, 0 12.44, 0 10.18 M0 10.18 C0 7.53, 0 4.89, 0 3.39 M0 10.18 C0 7.61, 0 5.05, 0 3.39 M0 3.39 C0 1.13, 1.13 0, 3.39 0 M0 3.39 C0 1.13, 1.13 0, 3.39 0" stroke="#e03131" stroke-width="4" fill="none"></path></g><g transform="translate(743.2357876753194 10) rotate(0 1496.8499755859375 56.950000000000045)"><text x="0" y="91.12193444293489" font-family="Helvetica, Segoe UI Emoji" font-size="99.04347826086969px" fill="#1e1e1e" text-anchor="start" style="white-space: pre;" direction="ltr" dominant-baseline="alphabetic">Example: Game wants to get post count since a date from post page</text></g><g transform="translate(374.19047619046614 331.7857142857141) rotate(0 801.7999877929688 43.19999999999999)"><text x="0" y="34.762499999999996" font-family="Cascadia, Segoe UI Emoji" font-size="36px" fill="#1e1e1e" text-anchor="start" style="white-space: pre;" direction="ltr" dominant-baseline="alphabetic"></text><text x="0" y="77.96249999999999" font-family="Cascadia, Segoe UI Emoji" font-size="36px" fill="#1e1e1e" text-anchor="start" style="white-space: pre;" direction="ltr" dominant-baseline="alphabetic">var count = await makePostFrameRequest("getPostCount", new Date("31/05/24"))</text></g><g stroke-linecap="round" transform="translate(909.5714285714203 710.0476190476188) rotate(0 704.8095238095211 368.4404761904762)"><path d="M32 0 C332.77 0, 633.55 0, 1377.62 0 M32 0 C335.1 0, 638.21 0, 1377.62 0 M1377.62 0 C1398.95 0, 1409.62 10.67, 1409.62 32 M1377.62 0 C1398.95 0, 1409.62 10.67, 1409.62 32 M1409.62 32 C1409.62 213.87, 1409.62 395.74, 1409.62 704.88 M1409.62 32 C1409.62 218.41, 1409.62 404.82, 1409.62 704.88 M1409.62 704.88 C1409.62 726.21, 1398.95 736.88, 1377.62 736.88 M1409.62 704.88 C1409.62 726.21, 1398.95 736.88, 1377.62 736.88 M1377.62 736.88 C1012.12 736.88, 646.63 736.88, 32 736.88 M1377.62 736.88 C1088.05 736.88, 798.49 736.88, 32 736.88 M32 736.88 C10.67 736.88, 0 726.21, 0 704.88 M32 736.88 C10.67 736.88, 0 726.21, 0 704.88 M0 704.88 C0 497.72, 0 290.56, 0 32 M0 704.88 C0 475.9, 0 246.93, 0 32 M0 32 C0 10.67, 10.67 0, 32 0 M0 32 C0 10.67, 10.67 0, 32 0" stroke="#1e1e1e" stroke-width="4" fill="none"></path></g><g transform="translate(933.714285714279 738.9285714285713) rotate(0 633 21.599999999999994)"><text x="0" y="34.762499999999996" font-family="Cascadia, Segoe UI Emoji" font-size="36px" fill="#2f9e44" text-anchor="start" style="white-space: pre;" direction="ltr" dominant-baseline="alphabetic">async fn makePostFrameRequest(messageCall, args = undefined)</text></g><g mask="url(#mask-_BfxM4--Jyby-ZFRuD7FH)" stroke-linecap="round"><g transform="translate(1336.5053826021358 419.1857142857141) rotate(0 118.28615942320721 158.53809523809525)"><path d="M0 0 C82.23 110.21, 164.46 220.42, 236.57 317.08 M0 0 C61.24 82.08, 122.48 164.16, 236.57 317.08" stroke="#e03131" stroke-width="4" fill="none"></path></g><g transform="translate(1336.5053826021358 419.1857142857141) rotate(0 118.28615942320721 158.53809523809525)"><path d="M215.67 303.36 C222.94 308.13, 230.2 312.9, 236.57 317.08 M215.67 303.36 C221.08 306.91, 226.49 310.46, 236.57 317.08" stroke="#e03131" stroke-width="4" fill="none"></path></g><g transform="translate(1336.5053826021358 419.1857142857141) rotate(0 118.28615942320721 158.53809523809525)"><path d="M229.38 293.13 C231.88 301.46, 234.38 309.78, 236.57 317.08 M229.38 293.13 C231.24 299.33, 233.1 305.53, 236.57 317.08" stroke="#e03131" stroke-width="4" fill="none"></path></g></g><mask id="mask-_BfxM4--Jyby-ZFRuD7FH"><rect x="0" y="0" fill="#fff" width="1673.0777014485502" height="836.2619047619046"></rect><rect x="1296.5415420253412" y="512.9238095238093" fill="#000" width="316.5" height="129.6" opacity="1"></rect></mask><g transform="translate(1296.5415420253412 512.9238095238093) rotate(0 158.25000000000182 64.80000000000001)"><text x="158.25" y="34.762499999999996" font-family="Cascadia, Segoe UI Emoji" font-size="36px" fill="#e03131" text-anchor="middle" style="white-space: pre;" direction="ltr" dominant-baseline="alphabetic">Method in post </text><text x="158.25" y="77.96249999999999" font-family="Cascadia, Segoe UI Emoji" font-size="36px" fill="#e03131" text-anchor="middle" style="white-space: pre;" direction="ltr" dominant-baseline="alphabetic">page game code </text><text x="158.25" y="121.1625" font-family="Cascadia, Segoe UI Emoji" font-size="36px" fill="#e03131" text-anchor="middle" style="white-space: pre;" direction="ltr" dominant-baseline="alphabetic">wants to call</text></g><g stroke-linecap="round" transform="translate(49.83333333333576 471.642857142857) rotate(0 1142.0833333333321 762.1666666666663)"><path d="M32 0 C526.17 0, 1020.34 0, 2252.17 0 M32 0 C517.03 0, 1002.07 0, 2252.17 0 M2252.17 0 C2273.5 0, 2284.17 10.67, 2284.17 32 M2252.17 0 C2273.5 0, 2284.17 10.67, 2284.17 32 M2284.17 32 C2284.17 545.2, 2284.17 1058.41, 2284.17 1492.33 M2284.17 32 C2284.17 441.38, 2284.17 850.77, 2284.17 1492.33 M2284.17 1492.33 C2284.17 1513.67, 2273.5 1524.33, 2252.17 1524.33 M2284.17 1492.33 C2284.17 1513.67, 2273.5 1524.33, 2252.17 1524.33 M2252.17 1524.33 C1412.98 1524.33, 573.79 1524.33, 32 1524.33 M2252.17 1524.33 C1615.72 1524.33, 979.27 1524.33, 32 1524.33 M32 1524.33 C10.67 1524.33, 0 1513.67, 0 1492.33 M32 1524.33 C10.67 1524.33, 0 1513.67, 0 1492.33 M0 1492.33 C0 987.96, 0 483.59, 0 32 M0 1492.33 C0 914.71, 0 337.08, 0 32 M0 32 C0 10.67, 10.67 0, 32 0 M0 32 C0 10.67, 10.67 0, 32 0" stroke="#1e1e1e" stroke-width="4" fill="none"></path></g><g transform="translate(902 489.64285714285734) rotate(0 105.5 21.599999999999994)"><text x="0" y="34.762499999999996" font-family="Cascadia, Segoe UI Emoji" font-size="36px" fill="#f08c00" text-anchor="start" style="white-space: pre;" direction="ltr" dominant-baseline="alphabetic">IPC system</text></g><g stroke-linecap="round" transform="translate(44 277.8095238095238) rotate(0 1140.6666666666679 88.33333333333334)"><path d="M32 0 C508.78 0, 985.56 0, 2249.33 0 M32 0 C567.21 0, 1102.42 0, 2249.33 0 M2249.33 0 C2270.67 0, 2281.33 10.67, 2281.33 32 M2249.33 0 C2270.67 0, 2281.33 10.67, 2281.33 32 M2281.33 32 C2281.33 66.48, 2281.33 100.95, 2281.33 144.67 M2281.33 32 C2281.33 55.27, 2281.33 78.54, 2281.33 144.67 M2281.33 144.67 C2281.33 166, 2270.67 176.67, 2249.33 176.67 M2281.33 144.67 C2281.33 166, 2270.67 176.67, 2249.33 176.67 M2249.33 176.67 C1494.61 176.67, 739.89 176.67, 32 176.67 M2249.33 176.67 C1718.86 176.67, 1188.4 176.67, 32 176.67 M32 176.67 C10.67 176.67, 0 166, 0 144.67 M32 176.67 C10.67 176.67, 0 166, 0 144.67 M0 144.67 C0 113.82, 0 82.97, 0 32 M0 144.67 C0 101.29, 0 57.91, 0 32 M0 32 C0 10.67, 10.67 0, 32 0 M0 32 C0 10.67, 10.67 0, 32 0" stroke="#1e1e1e" stroke-width="4" fill="none"></path></g><g transform="translate(72.33333333333576 591.9761904761905) rotate(0 274.29998779296875 21.599999999999998)"><text x="0" y="34.762499999999996" font-family="Cascadia, Segoe UI Emoji" font-size="36px" fill="#1e1e1e" text-anchor="start" style="white-space: pre;" direction="ltr" dominant-baseline="alphabetic">let postFrameReqId:int = 0</text></g><g transform="translate(75.70001220702761 645.5428571428571) rotate(0 567.3999938964844 21.599999999999998)"><text x="0" y="34.762499999999996" font-family="Cascadia, Segoe UI Emoji" font-size="36px" fill="#1e1e1e" text-anchor="start" style="white-space: pre;" direction="ltr" dominant-baseline="alphabetic">let postFrameReqs = new Map&lt;number, PublicPromise&gt;() </text></g><g transform="translate(989.3333333333358 819.3095238095239) rotate(0 284.8500061035156 21.599999999999994)"><text x="0" y="34.762499999999996" font-family="Cascadia, Segoe UI Emoji" font-size="36px" fill="#1e1e1e" text-anchor="start" style="white-space: pre;" direction="ltr" dominant-baseline="alphabetic">1. Increment postFrameReqId</text></g><g transform="translate(979.1333363850936 877.7095238095238) rotate(0 569.7000122070312 21.599999999999994)"><text x="0" y="34.762499999999996" font-family="Cascadia, Segoe UI Emoji" font-size="36px" fill="#1e1e1e" text-anchor="start" style="white-space: pre;" direction="ltr" dominant-baseline="alphabetic">2. Create a new PublicPromise() (TaskCompletionSource)</text></g><g transform="translate(980.3333333333358 935.3095238095236) rotate(0 654.0999755859375 21.599999999999994)"><text x="0" y="34.762499999999996" font-family="Cascadia, Segoe UI Emoji" font-size="36px" fill="#1e1e1e" text-anchor="start" style="white-space: pre;" direction="ltr" dominant-baseline="alphabetic">3. Push (postFrameReqId : the public promise) to postFrameReqs</text></g><g transform="translate(992.8333333333358 1218.3095238095236) rotate(0 611.9000244140625 21.600000000000023)"><text x="0" y="34.762499999999996" font-family="Cascadia, Segoe UI Emoji" font-size="36px" fill="#1e1e1e" text-anchor="start" style="white-space: pre;" direction="ltr" dominant-baseline="alphabetic">5. Send message to iframe containing payload (postMessage)</text></g><g transform="translate(240.89351851851825 185.47619047619048) rotate(0 385.85648148148175 31.599999999999994)"><text x="0" y="50.85625" font-family="Cascadia, Segoe UI Emoji" font-size="52.66666666666667px" fill="#1e1e1e" text-anchor="start" style="white-space: pre;" direction="ltr" dominant-baseline="alphabetic">Code (in main game page):</text></g><g stroke-linecap="round" transform="translate(10 160.97619047619048) rotate(0 1177.5 936.75)"><path d="M32 0 C607.15 0, 1182.29 0, 2323 0 M32 0 C928.28 0, 1824.57 0, 2323 0 M2323 0 C2344.33 0, 2355 10.67, 2355 32 M2323 0 C2344.33 0, 2355 10.67, 2355 32 M2355 32 C2355 670.54, 2355 1309.08, 2355 1841.5 M2355 32 C2355 740.37, 2355 1448.74, 2355 1841.5 M2355 1841.5 C2355 1862.83, 2344.33 1873.5, 2323 1873.5 M2355 1841.5 C2355 1862.83, 2344.33 1873.5, 2323 1873.5 M2323 1873.5 C1811.83 1873.5, 1300.67 1873.5, 32 1873.5 M2323 1873.5 C1661.71 1873.5, 1000.42 1873.5, 32 1873.5 M32 1873.5 C10.67 1873.5, 0 1862.83, 0 1841.5 M32 1873.5 C10.67 1873.5, 0 1862.83, 0 1841.5 M0 1841.5 C0 1468.44, 0 1095.37, 0 32 M0 1841.5 C0 1165.05, 0 488.6, 0 32 M0 32 C0 10.67, 10.67 0, 32 0 M0 32 C0 10.67, 10.67 0, 32 0" stroke="#1e1e1e" stroke-width="4" fill="none"></path></g><g stroke-linecap="round"><g transform="translate(982.6269038072751 837.769241295596) rotate(0 -245.6801155185476 10.567293067610336)"><path d="M-1.4 -1.38 C-145.46 4.59, -286.56 11.09, -490.56 20.93 M0.04 0 C-126.33 8.59, -252.23 13.25, -491.03 20.97" stroke="#e03131" stroke-width="4" fill="none"></path></g><g transform="translate(982.6269038072751 837.769241295596) rotate(0 -245.6801155185476 10.567293067610336)"><path d="M-469.53 9.97 C-476.4 15.38, -479.68 18.49, -490.06 20.72 M-467.79 11.64 C-473.63 14.37, -478.99 15.83, -490.63 20.77" stroke="#e03131" stroke-width="4" fill="none"></path></g><g transform="translate(982.6269038072751 837.769241295596) rotate(0 -245.6801155185476 10.567293067610336)"><path d="M-468.95 27.06 C-476.02 27.46, -479.46 25.56, -490.06 20.72 M-467.21 28.73 C-473.06 27.07, -478.57 24.13, -490.63 20.77" stroke="#e03131" stroke-width="4" fill="none"></path></g></g><mask></mask><g stroke-linecap="round"><g transform="translate(977.3075345881771 941.5537510216234) rotate(0 -47.501726909988065 1.3522322124137816)"><path d="M1.94 -0.5 C-35.67 -0.93, -64.98 3.6, -94.98 3.73 M0.8 -0.4 C-30 -1.53, -61.22 1.3, -94.8 2" stroke="#e03131" stroke-width="4" fill="none"></path></g><g transform="translate(977.3075345881771 941.5537510216234) rotate(0 -47.501726909988065 1.3522322124137816)"><path d="M-70.66 -7.62 C-80.7 -5.51, -86.65 -0.38, -94.79 2.52 M-71.23 -7.57 C-78.88 -5.04, -86.81 -1.09, -94.7 1.65" stroke="#e03131" stroke-width="4" fill="none"></path></g><g transform="translate(977.3075345881771 941.5537510216234) rotate(0 -47.501726909988065 1.3522322124137816)"><path d="M-70.05 9.47 C-80.46 5.46, -86.62 4.48, -94.79 2.52 M-70.63 9.52 C-78.62 6.65, -86.73 5.19, -94.7 1.65" stroke="#e03131" stroke-width="4" fill="none"></path></g></g><mask></mask><g transform="translate(89.36667887369549 847.209523809524) rotate(0 200.4499969482422 21.599999999999994)"><text x="0" y="34.762499999999996" font-family="Cascadia, Segoe UI Emoji" font-size="36px" fill="#1e1e1e" text-anchor="start" style="white-space: pre;" direction="ltr" dominant-baseline="alphabetic">postFrameReqId = 1 </text></g><g transform="translate(77.66666666666424 910.8095238095241) rotate(0 400.8999938964844 21.599999999999994)"><text x="0" y="34.762499999999996" font-family="Cascadia, Segoe UI Emoji" font-size="36px" fill="#1e1e1e" text-anchor="start" style="white-space: pre;" direction="ltr" dominant-baseline="alphabetic">postFrameReqs = [{ 1: PublicPromise }]</text></g><g stroke-linecap="round"><g transform="translate(743.5724586979595 955.0095238095241) rotate(0 123.01280272941403 159.53301006192865)"><path d="M0.57 -1.39 C70.16 90.03, 140.5 183.24, 245.92 320.96 M-0.97 1.09 C62.65 80.81, 125.35 162.34, 247.01 319.95" stroke="#e03131" stroke-width="4" fill="none"></path></g><g transform="translate(743.5724586979595 955.0095238095241) rotate(0 123.01280272941403 159.53301006192865)"><path d="M226.39 305.34 C233.73 309.05, 239.65 314.48, 246.92 321.64 M225.02 307.55 C232.08 310.74, 237.23 314.01, 247.88 320.74" stroke="#e03131" stroke-width="4" fill="none"></path></g><g transform="translate(743.5724586979595 955.0095238095241) rotate(0 123.01280272941403 159.53301006192865)"><path d="M239.93 294.89 C243.32 301.59, 245.36 310.01, 246.92 321.64 M238.56 297.1 C242.12 303.06, 243.8 309.01, 247.88 320.74" stroke="#e03131" stroke-width="4" fill="none"></path></g></g><mask></mask><g transform="translate(995.1666666666642 1276.309523809524) rotate(0 643.5499877929688 21.600000000000023)"><text x="0" y="34.762499999999996" font-family="Cascadia, Segoe UI Emoji" font-size="36px" fill="#1e1e1e" text-anchor="start" style="white-space: pre;" direction="ltr" dominant-baseline="alphabetic">6. var result = Await the public promise (we will be blocked)</text></g><g stroke-linecap="round" transform="translate(2491.6998239436616 177.142857142857) rotate(0 854.718309859154 652)"><path d="M32 0 C408.43 0, 784.87 0, 1677.44 0 M32 0 C594.49 0, 1156.98 0, 1677.44 0 M1677.44 0 C1698.77 0, 1709.44 10.67, 1709.44 32 M1677.44 0 C1698.77 0, 1709.44 10.67, 1709.44 32 M1709.44 32 C1709.44 343.4, 1709.44 654.81, 1709.44 1272 M1709.44 32 C1709.44 326.6, 1709.44 621.21, 1709.44 1272 M1709.44 1272 C1709.44 1293.33, 1698.77 1304, 1677.44 1304 M1709.44 1272 C1709.44 1293.33, 1698.77 1304, 1677.44 1304 M1677.44 1304 C1285.65 1304, 893.86 1304, 32 1304 M1677.44 1304 C1203.02 1304, 728.6 1304, 32 1304 M32 1304 C10.67 1304, 0 1293.33, 0 1272 M32 1304 C10.67 1304, 0 1293.33, 0 1272 M0 1272 C0 786.99, 0 301.98, 0 32 M0 1272 C0 1004.63, 0 737.26, 0 32 M0 32 C0 10.67, 10.67 0, 32 0 M0 32 C0 10.67, 10.67 0, 32 0" stroke="#1e1e1e" stroke-width="4" fill="none"></path></g><g transform="translate(2550.386703073309 208.05529845741103) rotate(0 270.7250061035156 26.44788732394366)"><text x="0" y="42.56456866197185" font-family="Cascadia, Segoe UI Emoji" font-size="44.07981220657279px" fill="#1e1e1e" text-anchor="start" style="white-space: pre;" direction="ltr" dominant-baseline="alphabetic">Code (in posts page):</text></g><g stroke-linecap="round" transform="translate(2556.0531103286266 405.9644533869887) rotate(0 791.8838028169012 344.73884976525824)"><path d="M32 0 C463.05 0, 894.11 0, 1551.77 0 M32 0 C609.99 0, 1187.98 0, 1551.77 0 M1551.77 0 C1573.1 0, 1583.77 10.67, 1583.77 32 M1551.77 0 C1573.1 0, 1583.77 10.67, 1583.77 32 M1583.77 32 C1583.77 263.68, 1583.77 495.36, 1583.77 657.48 M1583.77 32 C1583.77 223.65, 1583.77 415.31, 1583.77 657.48 M1583.77 657.48 C1583.77 678.81, 1573.1 689.48, 1551.77 689.48 M1583.77 657.48 C1583.77 678.81, 1573.1 689.48, 1551.77 689.48 M1551.77 689.48 C1035.68 689.48, 519.59 689.48, 32 689.48 M1551.77 689.48 C972.82 689.48, 393.86 689.48, 32 689.48 M32 689.48 C10.67 689.48, 0 678.81, 0 657.48 M32 689.48 C10.67 689.48, 0 678.81, 0 657.48 M0 657.48 C0 440.07, 0 222.67, 0 32 M0 657.48 C0 509.72, 0 361.96, 0 32 M0 32 C0 10.67, 10.67 0, 32 0 M0 32 C0 10.67, 10.67 0, 32 0" stroke="#1e1e1e" stroke-width="4" fill="none"></path></g><g transform="translate(2603.218603286372 440.71797451374925) rotate(0 592.7999877929688 21.44788732394366)"><text x="0" y="34.51769366197183" font-family="Cascadia, Segoe UI Emoji" font-size="35.74647887323944px" fill="#2f9e44" text-anchor="start" style="white-space: pre;" direction="ltr" dominant-baseline="alphabetic">window.addEventListener("message", async function(event) </text></g><g stroke-linecap="round"><g transform="translate(2191.095158456468 1212.3095238095236) rotate(0 219.7242386465041 -363.0978873239453)"><path d="M0 0 C32.15 -46.11, 119.66 -155.63, 192.9 -276.67 C266.15 -397.7, 398.36 -651.27, 439.45 -726.2 M0 0 C32.15 -46.11, 119.66 -155.63, 192.9 -276.67 C266.15 -397.7, 398.36 -651.27, 439.45 -726.2" stroke="#e03131" stroke-width="4" fill="none"></path></g><g transform="translate(2191.095158456468 1212.3095238095236) rotate(0 219.7242386465041 -363.0978873239453)"><path d="M435.88 -701.45 C436.64 -706.71, 437.4 -711.97, 439.45 -726.2 M435.88 -701.45 C437.03 -709.42, 438.18 -717.39, 439.45 -726.2" stroke="#e03131" stroke-width="4" fill="none"></path></g><g transform="translate(2191.095158456468 1212.3095238095236) rotate(0 219.7242386465041 -363.0978873239453)"><path d="M420.81 -709.53 C424.77 -713.08, 428.73 -716.62, 439.45 -726.2 M420.81 -709.53 C426.81 -714.9, 432.82 -720.27, 439.45 -726.2" stroke="#e03131" stroke-width="4" fill="none"></path></g></g><mask></mask><g transform="translate(988.9999999999854 995.3095238095232) rotate(0 263.75 108)"><text x="0" y="34.762499999999996" font-family="Cascadia, Segoe UI Emoji" font-size="36px" fill="#1e1e1e" text-anchor="start" style="white-space: pre;" direction="ltr" dominant-baseline="alphabetic">4. Prepare payload: {</text><text x="0" y="77.96249999999999" font-family="Cascadia, Segoe UI Emoji" font-size="36px" fill="#1e1e1e" text-anchor="start" style="white-space: pre;" direction="ltr" dominant-baseline="alphabetic">   call: messageCall,</text><text x="0" y="121.1625" font-family="Cascadia, Segoe UI Emoji" font-size="36px" fill="#1e1e1e" text-anchor="start" style="white-space: pre;" direction="ltr" dominant-baseline="alphabetic">   reqId: postFrameReqId,</text><text x="0" y="164.36249999999998" font-family="Cascadia, Segoe UI Emoji" font-size="36px" fill="#1e1e1e" text-anchor="start" style="white-space: pre;" direction="ltr" dominant-baseline="alphabetic">   data: args</text><text x="0" y="207.56249999999997" font-family="Cascadia, Segoe UI Emoji" font-size="36px" fill="#1e1e1e" text-anchor="start" style="white-space: pre;" direction="ltr" dominant-baseline="alphabetic">}</text></g><g transform="translate(881.5133101851716 299.20952380952247) rotate(0 167 22.849999999999994)"><text x="0" y="36.774218749999996" font-family="Cascadia, Segoe UI Emoji" font-size="38.08333333333333px" fill="#f08c00" text-anchor="start" style="white-space: pre;" direction="ltr" dominant-baseline="alphabetic">Main game code:</text></g><g transform="translate(2605.3333333333176 516.8095238095223) rotate(0 559.1500244140625 86.39999999999999)"><text x="0" y="34.762499999999996" font-family="Cascadia, Segoe UI Emoji" font-size="36px" fill="#1e1e1e" text-anchor="start" style="white-space: pre;" direction="ltr" dominant-baseline="alphabetic">1. Extract messageCall from the paload,</text><text x="0" y="77.96249999999999" font-family="Cascadia, Segoe UI Emoji" font-size="36px" fill="#1e1e1e" text-anchor="start" style="white-space: pre;" direction="ltr" dominant-baseline="alphabetic">   look in window[] (global scope of this page)</text><text x="0" y="121.1625" font-family="Cascadia, Segoe UI Emoji" font-size="36px" fill="#1e1e1e" text-anchor="start" style="white-space: pre;" direction="ltr" dominant-baseline="alphabetic">   to find the method that was attempted to be called</text><text x="0" y="164.36249999999998" font-family="Cascadia, Segoe UI Emoji" font-size="36px" fill="#1e1e1e" text-anchor="start" style="white-space: pre;" direction="ltr" dominant-baseline="alphabetic">   (using the provided method name)</text></g><g stroke-linecap="round" transform="translate(2535.014541387005 1139.1303960836656) rotate(0 595.3187919463089 160.59579439252326)"><path d="M32 0 C458.47 0, 884.94 0, 1158.64 0 M32 0 C295.68 0, 559.36 0, 1158.64 0 M1158.64 0 C1179.97 0, 1190.64 10.67, 1190.64 32 M1158.64 0 C1179.97 0, 1190.64 10.67, 1190.64 32 M1190.64 32 C1190.64 116.64, 1190.64 201.28, 1190.64 289.19 M1190.64 32 C1190.64 98.88, 1190.64 165.76, 1190.64 289.19 M1190.64 289.19 C1190.64 310.52, 1179.97 321.19, 1158.64 321.19 M1190.64 289.19 C1190.64 310.52, 1179.97 321.19, 1158.64 321.19 M1158.64 321.19 C800.91 321.19, 443.18 321.19, 32 321.19 M1158.64 321.19 C791.93 321.19, 425.22 321.19, 32 321.19 M32 321.19 C10.67 321.19, 0 310.52, 0 289.19 M32 321.19 C10.67 321.19, 0 310.52, 0 289.19 M0 289.19 C0 233.1, 0 177, 0 32 M0 289.19 C0 221.42, 0 153.65, 0 32 M0 32 C0 10.67, 10.67 0, 32 0 M0 32 C0 10.67, 10.67 0, 32 0" stroke="#1e1e1e" stroke-width="4" fill="none"></path></g><g transform="translate(2606.6666666666533 695.9428571428555) rotate(0 516.9500122070312 21.599999999999994)"><text x="0" y="34.762499999999996" font-family="Cascadia, Segoe UI Emoji" font-size="36px" fill="#1e1e1e" text-anchor="start" style="white-space: pre;" direction="ltr" dominant-baseline="alphabetic">2. Call the method, with payload.data (arguments)</text></g><g transform="translate(2590.5643884267993 1260.4580766499082) rotate(0 266.5 20.988696527152626)"><text x="0" y="33.77868347338625" font-family="Cascadia, Segoe UI Emoji" font-size="34.98116087858771px" fill="#2f9e44" text-anchor="start" style="white-space: pre;" direction="ltr" dominant-baseline="alphabetic">fn getPostCount(sinceDate)</text></g><g mask="url(#mask-fupogMDLe8QpqMpkS4M0U)" stroke-linecap="round"><g transform="translate(1871.3363668487727 419.1857142857141) rotate(0 -12.995429579239499 159.37142857142862)"><path d="M0 0 C-4.33 53.12, -21.66 265.62, -25.99 318.74 M0 0 C-4.33 53.12, -21.66 265.62, -25.99 318.74" stroke="#e03131" stroke-width="4" fill="none"></path></g><g transform="translate(1871.3363668487727 419.1857142857141) rotate(0 -12.995429579239499 159.37142857142862)"><path d="M-32.6 294.63 C-30.44 302.53, -28.27 310.43, -25.99 318.74 M-32.6 294.63 C-30.23 303.29, -27.85 311.95, -25.99 318.74" stroke="#e03131" stroke-width="4" fill="none"></path></g><g transform="translate(1871.3363668487727 419.1857142857141) rotate(0 -12.995429579239499 159.37142857142862)"><path d="M-15.56 296.02 C-18.98 303.46, -22.39 310.91, -25.99 318.74 M-15.56 296.02 C-19.31 304.18, -23.05 312.34, -25.99 318.74" stroke="#e03131" stroke-width="4" fill="none"></path></g></g><mask id="mask-fupogMDLe8QpqMpkS4M0U"><rect x="0" y="0" fill="#fff" width="1997.3272260072517" height="837.9285714285713"></rect><rect x="1668.440943373047" y="513.7571428571428" fill="#000" width="379.79998779296875" height="129.6" opacity="1"></rect></mask><g transform="translate(1668.440943373047 513.7571428571426) rotate(0 189.8999938964862 64.80000000000001)"><text x="189.89999389648438" y="34.762499999999996" font-family="Cascadia, Segoe UI Emoji" font-size="36px" fill="#e03131" text-anchor="middle" style="white-space: pre;" direction="ltr" dominant-baseline="alphabetic">Argument game code</text><text x="189.89999389648438" y="77.96249999999999" font-family="Cascadia, Segoe UI Emoji" font-size="36px" fill="#e03131" text-anchor="middle" style="white-space: pre;" direction="ltr" dominant-baseline="alphabetic">wants to call it </text><text x="189.89999389648438" y="121.1625" font-family="Cascadia, Segoe UI Emoji" font-size="36px" fill="#e03131" text-anchor="middle" style="white-space: pre;" direction="ltr" dominant-baseline="alphabetic">with</text></g><g transform="translate(2620.7431962477312 1303.360535399422) rotate(0 536.8546667774735 21.1375525308913)"><text x="0" y="34.018248604403176" font-family="Cascadia, Segoe UI Emoji" font-size="35.22925421815216px" fill="#1e1e1e" text-anchor="start" style="white-space: pre;" direction="ltr" dominant-baseline="alphabetic">1. let postCount:number = // Iterate, and get result</text></g><g transform="translate(2617.313523426841 1354.6411984560057) rotate(0 206.4825733341695 21.1375525308913)"><text x="0" y="34.01824860440318" font-family="Cascadia, Segoe UI Emoji" font-size="35.229254218152164px" fill="#1e1e1e" text-anchor="start" style="white-space: pre;" direction="ltr" dominant-baseline="alphabetic">2. return postCount </text></g><g transform="translate(2600.7166544596294 1024.709523809522) rotate(0 590.7999877929688 21.599999999999994)"><text x="0" y="34.762499999999996" font-family="Cascadia, Segoe UI Emoji" font-size="36px" fill="#1e1e1e" text-anchor="start" style="white-space: pre;" direction="ltr" dominant-baseline="alphabetic">5. Send message containing response payload to game page</text></g><g transform="translate(2608.7166544596294 804.2095238095221) rotate(0 506.3999938964844 107.99999999999997)"><text x="0" y="34.762499999999996" font-family="Cascadia, Segoe UI Emoji" font-size="36px" fill="#1e1e1e" text-anchor="start" style="white-space: pre;" direction="ltr" dominant-baseline="alphabetic">4. Prepare response payload {</text><text x="0" y="77.96249999999999" font-family="Cascadia, Segoe UI Emoji" font-size="36px" fill="#1e1e1e" text-anchor="start" style="white-space: pre;" direction="ltr" dominant-baseline="alphabetic">    // reuse the same request Id window sent in,</text><text x="0" y="121.1625" font-family="Cascadia, Segoe UI Emoji" font-size="36px" fill="#1e1e1e" text-anchor="start" style="white-space: pre;" direction="ltr" dominant-baseline="alphabetic">    reqId: payload.handle,</text><text x="0" y="164.36249999999998" font-family="Cascadia, Segoe UI Emoji" font-size="36px" fill="#1e1e1e" text-anchor="start" style="white-space: pre;" direction="ltr" dominant-baseline="alphabetic">    data: result</text><text x="0" y="207.56249999999997" font-family="Cascadia, Segoe UI Emoji" font-size="36px" fill="#1e1e1e" text-anchor="start" style="white-space: pre;" direction="ltr" dominant-baseline="alphabetic">}</text></g><g transform="translate(2606.216654459622 747.7095238095221) rotate(0 474.75 21.599999999999994)"><text x="0" y="34.762499999999996" font-family="Cascadia, Segoe UI Emoji" font-size="36px" fill="#1e1e1e" text-anchor="start" style="white-space: pre;" direction="ltr" dominant-baseline="alphabetic">3. var result = Return value of called method</text></g><g transform="translate(2571.0396825396783 330.8809523809506) rotate(0 116.05000305175781 21.599999999999994)"><text x="0" y="34.762499999999996" font-family="Cascadia, Segoe UI Emoji" font-size="36px" fill="#f08c00" text-anchor="start" style="white-space: pre;" direction="ltr" dominant-baseline="alphabetic">IPC System:</text></g><g stroke-linecap="round"><g transform="translate(3584.0931362256233 754.1428571428555) rotate(0 74.03936370086376 231.2412806695525)"><path d="M0 0 C42.38 39.48, 271.98 159.82, 254.28 236.9 C236.58 313.99, -46.12 424.89, -106.2 462.48 M0 0 C42.38 39.48, 271.98 159.82, 254.28 236.9 C236.58 313.99, -46.12 424.89, -106.2 462.48" stroke="#e03131" stroke-width="4" fill="none"></path></g><g transform="translate(3584.0931362256233 754.1428571428555) rotate(0 74.03936370086376 231.2412806695525)"><path d="M0 0 L14.7 2.99 L7.16 13.18 L0 0" stroke="none" stroke-width="0" fill="#e03131" fill-rule="evenodd"></path><path d="M0 0 C3.95 0.8, 7.89 1.61, 14.7 2.99 M0 0 C3.75 0.76, 7.51 1.53, 14.7 2.99 M14.7 2.99 C11.9 6.77, 9.11 10.55, 7.16 13.18 M14.7 2.99 C12.78 5.58, 10.86 8.18, 7.16 13.18 M7.16 13.18 C5.54 10.2, 3.92 7.22, 0 0 M7.16 13.18 C5.12 9.42, 3.07 5.66, 0 0 M0 0 C0 0, 0 0, 0 0 M0 0 C0 0, 0 0, 0 0" stroke="#e03131" stroke-width="4" fill="none"></path></g><g transform="translate(3584.0931362256233 754.1428571428555) rotate(0 74.03936370086376 231.2412806695525)"><path d="M-89.05 444.3 C-93.65 449.18, -98.26 454.06, -106.2 462.48 M-89.05 444.3 C-93.43 448.94, -97.81 453.58, -106.2 462.48" stroke="#e03131" stroke-width="4" fill="none"></path></g><g transform="translate(3584.0931362256233 754.1428571428555) rotate(0 74.03936370086376 231.2412806695525)"><path d="M-81.37 459.58 C-88.04 460.36, -94.7 461.14, -106.2 462.48 M-81.37 459.58 C-87.71 460.32, -94.05 461.06, -106.2 462.48" stroke="#e03131" stroke-width="4" fill="none"></path></g></g><mask></mask><g transform="translate(2574.156346154581 1164.2809523809506) rotate(0 211 21.600000000000023)"><text x="0" y="34.762499999999996" font-family="Cascadia, Segoe UI Emoji" font-size="36px" fill="#f08c00" text-anchor="start" style="white-space: pre;" direction="ltr" dominant-baseline="alphabetic">Main post page code:</text></g><g stroke-linecap="round" transform="translate(2531.873015873007 299.21428571428396) rotate(0 812.5 411.25)"><path d="M32 0 C651.09 0, 1270.17 0, 1593 0 M32 0 C538.15 0, 1044.31 0, 1593 0 M1593 0 C1614.33 0, 1625 10.67, 1625 32 M1593 0 C1614.33 0, 1625 10.67, 1625 32 M1625 32 C1625 285.32, 1625 538.64, 1625 790.5 M1625 32 C1625 299.69, 1625 567.38, 1625 790.5 M1625 790.5 C1625 811.83, 1614.33 822.5, 1593 822.5 M1625 790.5 C1625 811.83, 1614.33 822.5, 1593 822.5 M1593 822.5 C1000.23 822.5, 407.46 822.5, 32 822.5 M1593 822.5 C1096.57 822.5, 600.14 822.5, 32 822.5 M32 822.5 C10.67 822.5, 0 811.83, 0 790.5 M32 822.5 C10.67 822.5, 0 811.83, 0 790.5 M0 790.5 C0 638.3, 0 486.11, 0 32 M0 790.5 C0 543.33, 0 296.15, 0 32 M0 32 C0 10.67, 10.67 0, 32 0 M0 32 C0 10.67, 10.67 0, 32 0" stroke="#1e1e1e" stroke-width="4" fill="none"></path></g><g stroke-linecap="round" transform="translate(2554.373015873007 1219.2142857142842) rotate(0 575 101.66666666666663)"><path d="M32 0 C334.96 0, 637.92 0, 1118 0 M32 0 C413.75 0, 795.49 0, 1118 0 M1118 0 C1139.33 0, 1150 10.67, 1150 32 M1118 0 C1139.33 0, 1150 10.67, 1150 32 M1150 32 C1150 80.7, 1150 129.39, 1150 171.33 M1150 32 C1150 68.05, 1150 104.1, 1150 171.33 M1150 171.33 C1150 192.67, 1139.33 203.33, 1118 203.33 M1150 171.33 C1150 192.67, 1139.33 203.33, 1118 203.33 M1118 203.33 C832.34 203.33, 546.67 203.33, 32 203.33 M1118 203.33 C684.38 203.33, 250.76 203.33, 32 203.33 M32 203.33 C10.67 203.33, 0 192.67, 0 171.33 M32 203.33 C10.67 203.33, 0 192.67, 0 171.33 M0 171.33 C0 140.55, 0 109.76, 0 32 M0 171.33 C0 123.71, 0 76.09, 0 32 M0 32 C0 10.67, 10.67 0, 32 0 M0 32 C0 10.67, 10.67 0, 32 0" stroke="#1e1e1e" stroke-width="4" fill="none"></path></g><g stroke-linecap="round" transform="translate(903.5396825396747 1473.5476190476172) rotate(0 697 244)"><path d="M32 0 C341.17 0, 650.33 0, 1362 0 M32 0 C329.65 0, 627.31 0, 1362 0 M1362 0 C1383.33 0, 1394 10.67, 1394 32 M1362 0 C1383.33 0, 1394 10.67, 1394 32 M1394 32 C1394 142.58, 1394 253.16, 1394 456 M1394 32 C1394 193.21, 1394 354.42, 1394 456 M1394 456 C1394 477.33, 1383.33 488, 1362 488 M1394 456 C1394 477.33, 1383.33 488, 1362 488 M1362 488 C967.77 488, 573.54 488, 32 488 M1362 488 C872.02 488, 382.05 488, 32 488 M32 488 C10.67 488, 0 477.33, 0 456 M32 488 C10.67 488, 0 477.33, 0 456 M0 456 C0 365.39, 0 274.78, 0 32 M0 456 C0 364.76, 0 273.52, 0 32 M0 32 C0 10.67, 10.67 0, 32 0 M0 32 C0 10.67, 10.67 0, 32 0" stroke="#1e1e1e" stroke-width="4" fill="none"></path></g><g transform="translate(940.7396947467023 1510.0997317236736) rotate(0 592.7999877929688 21.44788732394369)"><text x="0" y="34.51769366197183" font-family="Cascadia, Segoe UI Emoji" font-size="35.74647887323944px" fill="#2f9e44" text-anchor="start" style="white-space: pre;" direction="ltr" dominant-baseline="alphabetic">window.addEventListener("message", async function(event) </text></g><g stroke-linecap="round"><g transform="translate(2597.3730158730104 1060.547619047617) rotate(0 -242.5 238.75)"><path d="M0 0 C-80.83 79.58, -404.17 397.92, -485 477.5 M0 0 C-80.83 79.58, -404.17 397.92, -485 477.5" stroke="#e03131" stroke-width="4" fill="none"></path></g><g transform="translate(2597.3730158730104 1060.547619047617) rotate(0 -242.5 238.75)"><path d="M0 0 L-5.24 14.05 L-14.13 5.02 L0 0" stroke="none" stroke-width="0" fill="#e03131" fill-rule="evenodd"></path><path d="M0 0 C-1.81 4.85, -3.62 9.71, -5.24 14.05 M0 0 C-2.03 5.43, -4.05 10.86, -5.24 14.05 M-5.24 14.05 C-7.53 11.73, -9.82 9.4, -14.13 5.02 M-5.24 14.05 C-7.38 11.88, -9.52 9.71, -14.13 5.02 M-14.13 5.02 C-9.7 3.45, -5.27 1.87, 0 0 M-14.13 5.02 C-8.79 3.12, -3.44 1.22, 0 0 M0 0 C0 0, 0 0, 0 0 M0 0 C0 0, 0 0, 0 0" stroke="#e03131" stroke-width="4" fill="none"></path></g><g transform="translate(2597.3730158730104 1060.547619047617) rotate(0 -242.5 238.75)"><path d="M-474.26 454.93 C-477.97 462.72, -481.68 470.52, -485 477.5 M-474.26 454.93 C-478.41 463.65, -482.56 472.38, -485 477.5" stroke="#e03131" stroke-width="4" fill="none"></path></g><g transform="translate(2597.3730158730104 1060.547619047617) rotate(0 -242.5 238.75)"><path d="M-462.26 467.11 C-470.11 470.7, -477.97 474.29, -485 477.5 M-462.26 467.11 C-471.05 471.13, -479.84 475.14, -485 477.5" stroke="#e03131" stroke-width="4" fill="none"></path></g></g><mask></mask><g transform="translate(943.5396825396783 1577.88095238095) rotate(0 664.6500244140625 43.19999999999999)"><text x="0" y="34.762499999999996" font-family="Cascadia, Segoe UI Emoji" font-size="36px" fill="#1e1e1e" text-anchor="start" style="white-space: pre;" direction="ltr" dominant-baseline="alphabetic">1. Extract handle from payload, look it up in postFrameReqs, to</text><text x="0" y="77.96249999999999" font-family="Cascadia, Segoe UI Emoji" font-size="36px" fill="#1e1e1e" text-anchor="start" style="white-space: pre;" direction="ltr" dominant-baseline="alphabetic">  get the public promise instance</text></g><g transform="translate(942.8896581256158 1684.6809523809502) rotate(0 654.0999755859375 129.60000000000002)"><text x="0" y="34.762499999999996" font-family="Cascadia, Segoe UI Emoji" font-size="36px" fill="#1e1e1e" text-anchor="start" style="white-space: pre;" direction="ltr" dominant-baseline="alphabetic">2. Call .resolve(payload.data) on the public promise instance,</text><text x="0" y="77.96249999999999" font-family="Cascadia, Segoe UI Emoji" font-size="36px" fill="#1e1e1e" text-anchor="start" style="white-space: pre;" direction="ltr" dominant-baseline="alphabetic">   with the data (return value from the method called in post</text><text x="0" y="121.1625" font-family="Cascadia, Segoe UI Emoji" font-size="36px" fill="#1e1e1e" text-anchor="start" style="white-space: pre;" direction="ltr" dominant-baseline="alphabetic">   window, this will unlock anything awaiting the public</text><text x="0" y="164.36249999999998" font-family="Cascadia, Segoe UI Emoji" font-size="36px" fill="#1e1e1e" text-anchor="start" style="white-space: pre;" direction="ltr" dominant-baseline="alphabetic">   promise)</text><text x="0" y="207.56249999999997" font-family="Cascadia, Segoe UI Emoji" font-size="36px" fill="#1e1e1e" text-anchor="start" style="white-space: pre;" direction="ltr" dominant-baseline="alphabetic">3.  Remove the postFrameReqs[handle]  from postFrameReqs. This</text><text x="0" y="250.76249999999996" font-family="Cascadia, Segoe UI Emoji" font-size="36px" fill="#1e1e1e" text-anchor="start" style="white-space: pre;" direction="ltr" dominant-baseline="alphabetic">    request is complete! </text></g><g transform="translate(99.73969474671321 1570.28095238095) rotate(0 379.79998779296875 21.600000000000023)"><text x="0" y="34.762499999999996" font-family="Cascadia, Segoe UI Emoji" font-size="36px" fill="#1e1e1e" text-anchor="start" style="white-space: pre;" direction="ltr" dominant-baseline="alphabetic">postFrameReqs = { 1: PublicPromise }</text></g><g transform="translate(101.73969474671321 1644.28095238095) rotate(0 242.64999389648438 21.599999999999966)"><text x="0" y="34.762499999999996" font-family="Cascadia, Segoe UI Emoji" font-size="36px" fill="#1e1e1e" text-anchor="start" style="white-space: pre;" direction="ltr" dominant-baseline="alphabetic">PublicPromise.resolve()</text></g><g transform="translate(101.73969474671321 1714.2809523809503) rotate(0 189.89999389648438 21.600000000000023)"><text x="0" y="34.762499999999996" font-family="Cascadia, Segoe UI Emoji" font-size="36px" fill="#1e1e1e" text-anchor="start" style="white-space: pre;" direction="ltr" dominant-baseline="alphabetic">postFrameReqs = []</text></g><g stroke-linecap="round"><g transform="translate(937.5396825396783 1597.88095238095) rotate(0 -42 -5)"><path d="M0 0 C-14 -1.67, -70 -8.33, -84 -10 M0 0 C-14 -1.67, -70 -8.33, -84 -10" stroke="#e03131" stroke-width="4" fill="none"></path></g><g transform="translate(937.5396825396783 1597.88095238095) rotate(0 -42 -5)"><path d="M-59.66 -15.71 C-66.47 -14.11, -73.28 -12.52, -84 -10 M-59.66 -15.71 C-64.77 -14.51, -69.88 -13.32, -84 -10" stroke="#e03131" stroke-width="4" fill="none"></path></g><g transform="translate(937.5396825396783 1597.88095238095) rotate(0 -42 -5)"><path d="M-61.68 1.27 C-67.93 -1.88, -74.17 -5.04, -84 -10 M-61.68 1.27 C-66.37 -1.1, -71.05 -3.46, -84 -10" stroke="#e03131" stroke-width="4" fill="none"></path></g></g><mask></mask><g stroke-linecap="round"><g transform="translate(941.5396825396783 1705.8809523809502) rotate(0 -173 -19.000000000000057)"><path d="M0 0 C-57.67 -6.33, -288.33 -31.67, -346 -38 M0 0 C-57.67 -6.33, -288.33 -31.67, -346 -38" stroke="#e03131" stroke-width="4" fill="none"></path></g><g transform="translate(941.5396825396783 1705.8809523809502) rotate(0 -173 -19.000000000000057)"><path d="M-321.71 -43.93 C-328.62 -42.25, -335.53 -40.56, -346 -38 M-321.71 -43.93 C-330.71 -41.74, -339.7 -39.54, -346 -38" stroke="#e03131" stroke-width="4" fill="none"></path></g><g transform="translate(941.5396825396783 1705.8809523809502) rotate(0 -173 -19.000000000000057)"><path d="M-323.58 -26.94 C-329.96 -30.08, -336.34 -33.23, -346 -38 M-323.58 -26.94 C-331.88 -31.03, -340.19 -35.13, -346 -38" stroke="#e03131" stroke-width="4" fill="none"></path></g></g><mask></mask><g stroke-linecap="round"><g transform="translate(941.5396825396783 1879.8809523809502) rotate(0 -232 -65)"><path d="M0 0 C-77.33 -21.67, -386.67 -108.33, -464 -130 M0 0 C-77.33 -21.67, -386.67 -108.33, -464 -130" stroke="#e03131" stroke-width="4" fill="none"></path></g><g transform="translate(941.5396825396783 1879.8809523809502) rotate(0 -232 -65)"><path d="M-439.07 -131.9 C-447.67 -131.24, -456.27 -130.59, -464 -130 M-439.07 -131.9 C-447.33 -131.27, -455.59 -130.64, -464 -130" stroke="#e03131" stroke-width="4" fill="none"></path></g><g transform="translate(941.5396825396783 1879.8809523809502) rotate(0 -232 -65)"><path d="M-443.69 -115.43 C-450.69 -120.46, -457.7 -125.48, -464 -130 M-443.69 -115.43 C-450.42 -120.26, -457.15 -125.09, -464 -130" stroke="#e03131" stroke-width="4" fill="none"></path></g></g><mask></mask><g mask="url(#mask-oqSMhBlEH_jOFkrzj79NG)" stroke-linecap="round"><g transform="translate(233.2396825396754 1643.2809523809503) rotate(0 380.15000000000146 -168.7084401532361)"><path d="M0 0 C52.38 -44.9, 187.58 -213.16, 314.3 -269.4 C441.02 -325.64, 685.97 -326.08, 760.3 -337.42 M0 0 C52.38 -44.9, 187.58 -213.16, 314.3 -269.4 C441.02 -325.64, 685.97 -326.08, 760.3 -337.42" stroke="#e03131" stroke-width="4" fill="none"></path></g><g transform="translate(233.2396825396754 1643.2809523809503) rotate(0 380.15000000000146 -168.7084401532361)"><path d="M737.63 -326.88 C746.58 -331.04, 755.54 -335.2, 760.3 -337.42 M737.63 -326.88 C745.19 -330.39, 752.74 -333.91, 760.3 -337.42" stroke="#e03131" stroke-width="4" fill="none"></path></g><g transform="translate(233.2396825396754 1643.2809523809503) rotate(0 380.15000000000146 -168.7084401532361)"><path d="M736.16 -343.92 C745.69 -341.35, 755.23 -338.78, 760.3 -337.42 M736.16 -343.92 C744.21 -341.75, 752.25 -339.58, 760.3 -337.42" stroke="#e03131" stroke-width="4" fill="none"></path></g></g><mask id="mask-oqSMhBlEH_jOFkrzj79NG"><rect x="0" y="0" fill="#fff" width="1093.5396825396783" height="2080.6978326874223"></rect><rect x="294.33968559143614" y="1265.88095238095" fill="#000" width="506.3999938964844" height="215.99999999999997" opacity="1"></rect></mask><g transform="translate(294.33968559143614 1265.88095238095) rotate(0 319.04999694824073 208.6915598467641)"><text x="253.1999969482422" y="34.762499999999996" font-family="Cascadia, Segoe UI Emoji" font-size="36px" fill="#e03131" text-anchor="middle" style="white-space: pre;" direction="ltr" dominant-baseline="alphabetic">This will unlock </text><text x="253.1999969482422" y="77.96249999999999" font-family="Cascadia, Segoe UI Emoji" font-size="36px" fill="#e03131" text-anchor="middle" style="white-space: pre;" direction="ltr" dominant-baseline="alphabetic">makePostFrameRequest </text><text x="253.1999969482422" y="121.1625" font-family="Cascadia, Segoe UI Emoji" font-size="36px" fill="#e03131" text-anchor="middle" style="white-space: pre;" direction="ltr" dominant-baseline="alphabetic">method, with the return </text><text x="253.1999969482422" y="164.36249999999998" font-family="Cascadia, Segoe UI Emoji" font-size="36px" fill="#e03131" text-anchor="middle" style="white-space: pre;" direction="ltr" dominant-baseline="alphabetic">value of the post page </text><text x="253.1999969482422" y="207.56249999999997" font-family="Cascadia, Segoe UI Emoji" font-size="36px" fill="#e03131" text-anchor="middle" style="white-space: pre;" direction="ltr" dominant-baseline="alphabetic">method in result</text></g><g transform="translate(999.9896947467132 1340.28095238095) rotate(0 168.8000030517578 21.600000000000023)"><text x="0" y="34.762499999999996" font-family="Cascadia, Segoe UI Emoji" font-size="36px" fill="#1e1e1e" text-anchor="start" style="white-space: pre;" direction="ltr" dominant-baseline="alphabetic">7. Return result</text></g><g stroke-opacity="0.8" fill-opacity="0.8" transform="translate(1064.243386596594 1383.7142857142835) rotate(0 517.8333129882812 20.350000000000023)"><text x="0" y="32.75078125" font-family="Cascadia, Segoe UI Emoji" font-size="33.91666666666667px" fill="#e03131" text-anchor="start" style="white-space: pre;" direction="ltr" dominant-baseline="alphabetic">(success! this method returns and var count is set!)</text></g><g stroke-opacity="0.8" fill-opacity="0.8" transform="translate(747.539682539682 336.7976190476163) rotate(0 31.649999618530273 21.599999999999994)"><text x="0" y="34.762499999999996" font-family="Cascadia, Segoe UI Emoji" font-size="36px" fill="#1971c2" text-anchor="start" style="white-space: pre;" direction="ltr" dominant-baseline="alphabetic">(1)</text></g><g stroke-opacity="0.8" fill-opacity="0.8" transform="translate(913.3896829211517 717.6976190476163) rotate(0 31.649999618530273 21.599999999999994)"><text x="0" y="34.762499999999996" font-family="Cascadia, Segoe UI Emoji" font-size="36px" fill="#1971c2" text-anchor="start" style="white-space: pre;" direction="ltr" dominant-baseline="alphabetic">(2)</text></g><g stroke-opacity="0.8" fill-opacity="0.8" transform="translate(2563.3896829211517 410.1976190476163) rotate(0 31.649999618530273 21.599999999999994)"><text x="0" y="34.762499999999996" font-family="Cascadia, Segoe UI Emoji" font-size="36px" fill="#1971c2" text-anchor="start" style="white-space: pre;" direction="ltr" dominant-baseline="alphabetic">(3)</text></g><g stroke-opacity="0.8" fill-opacity="0.8" transform="translate(2560.8896829211517 1225.1976190476162) rotate(0 31.649999618530273 21.600000000000023)"><text x="0" y="34.762499999999996" font-family="Cascadia, Segoe UI Emoji" font-size="36px" fill="#1971c2" text-anchor="start" style="white-space: pre;" direction="ltr" dominant-baseline="alphabetic">(4)</text></g><g stroke-opacity="0.8" fill-opacity="0.8" transform="translate(913.3896829211517 1482.6976190476162) rotate(0 31.649999618530273 21.600000000000023)"><text x="0" y="34.762499999999996" font-family="Cascadia, Segoe UI Emoji" font-size="36px" fill="#1971c2" text-anchor="start" style="white-space: pre;" direction="ltr" dominant-baseline="alphabetic">(5)</text></g><g stroke-opacity="0.8" fill-opacity="0.8" transform="translate(338.3896829211517 330.1976190476163) rotate(0 31.649999618530273 21.599999999999994)"><text x="0" y="34.762499999999996" font-family="Cascadia, Segoe UI Emoji" font-size="36px" fill="#1971c2" text-anchor="start" style="white-space: pre;" direction="ltr" dominant-baseline="alphabetic">(7)</text></g><g stroke-opacity="0.8" fill-opacity="0.8" transform="translate(933.3896829211517 1340.1976190476162) rotate(0 31.649999618530273 21.600000000000023)"><text x="0" y="34.762499999999996" font-family="Cascadia, Segoe UI Emoji" font-size="36px" fill="#1971c2" text-anchor="start" style="white-space: pre;" direction="ltr" dominant-baseline="alphabetic">(6)</text></g><g stroke-opacity="0.8" fill-opacity="0.8" transform="translate(141.68253968254066 542.3452380952356) rotate(0 168.8000030517578 21.599999999999994)"><text x="0" y="34.762499999999996" font-family="Cascadia, Segoe UI Emoji" font-size="36px" fill="#e03131" text-anchor="start" style="white-space: pre;" direction="ltr" dominant-baseline="alphabetic">Defined outside:</text></g><g stroke-opacity="0.8" fill-opacity="0.8" transform="translate(70.03254006400675 542.7452380952355) rotate(0 31.649999618530273 21.599999999999994)"><text x="0" y="34.762499999999996" font-family="Cascadia, Segoe UI Emoji" font-size="36px" fill="#1971c2" text-anchor="start" style="white-space: pre;" direction="ltr" dominant-baseline="alphabetic">(0)</text></g></svg>